<svg width="141" height="131" viewBox="0 0 141 131" fill="none" xmlns="http://www.w3.org/2000/svg">
<path d="M29.2973 36.9839C28.4546 32.5386 26.9826 28.2135 24.9386 24.176C24.704 23.712 24.388 23.1974 23.8733 23.1281C23.1026 23.023 22.64 23.9479 22.4533 24.7025C21.9586 26.688 21.6493 28.7213 21.5293 30.764" fill="#17282F"/>
<path d="M18.4987 30.9016C18.0347 29.124 17.0801 27.4761 15.7707 26.1881C15.4107 25.8376 14.9081 25.4881 14.4454 25.684C14.0001 25.8693 13.8827 26.4349 13.8387 26.9146C13.6294 29.1324 13.6667 31.3745 13.9454 33.584" fill="#17282F"/>
<path d="M11.0893 34.0291C11.0067 33.8572 12.7066 32.8667 14.888 31.8172C17.0693 30.7682 18.9026 30.0572 18.9866 30.2307C19.0693 30.4042 17.3693 31.3932 15.188 32.4427C13.0093 33.4922 11.1733 34.2026 11.0893 34.0291Z" fill="#33535F"/>
<path d="M128.404 60.095C128.404 60.095 129.085 64.3508 130.619 66.9054C132.151 69.4601 132.491 74.7388 132.32 78.1429C132.151 81.5481 131.98 90.9122 133.343 93.6377C134.704 96.3617 138.844 101.64 139.983 105.727C141.123 109.812 141.515 115.433 139.983 119.008C138.451 122.583 137.073 127.862 134.696 128.712C132.32 129.564 124.999 128.712 124.999 128.712C124.999 128.712 124.999 126.159 126.02 125.307C127.043 124.456 130.619 122.753 130.959 120.028C131.299 117.304 131.809 112.707 131.809 112.707C131.809 112.707 123.125 109.131 118.699 104.875C114.272 100.619 108.653 94.5924 108.653 94.5924C108.653 94.5924 106.78 101.469 105.077 104.704C103.375 107.94 104.567 110.664 105.077 111.857C105.588 113.048 99.1188 120.144 91.9668 125.478C84.8161 130.81 78.8561 127.521 78.8561 127.521C78.8561 127.521 77.8348 123.093 79.7081 122.241C81.5801 121.391 85.3267 121.732 85.3267 121.732C85.3267 121.732 94.1801 115.262 93.1587 110.493C92.1374 105.727 89.0721 100.278 88.7321 96.7017C88.3921 93.1268 88.2214 91.4241 88.2214 91.4241C88.2214 91.4241 78.0934 92.7866 71.6641 92.4456C65.2361 92.1054 61.3187 90.7429 61.3187 90.7429C61.3187 90.7429 58.4241 108.451 60.2961 111.005C62.1707 113.559 68.1294 118.327 68.6401 121.562C69.1508 124.796 68.2987 129.469 64.5534 129.091C60.8081 128.712 60.9774 126.499 61.1481 123.435C61.1481 123.435 55.8694 118.156 54.6788 116.114C53.4868 114.071 47.0161 96.1908 47.0161 96.1908C47.0161 96.1908 36.9694 115.602 36.6294 119.008C36.2894 122.412 33.5654 124.796 32.8841 124.967C32.2027 125.136 30.6707 130.81 28.2867 130.81C25.9027 130.81 20.1148 129.735 20.1148 129.735C20.1148 129.735 20.2841 125.988 22.8388 124.796C25.3921 123.604 28.9668 123.093 28.9668 118.156C28.9668 113.219 31.8614 93.8069 31.6921 93.1268C31.5214 92.4456 26.2427 82.7402 25.3921 79.335C24.5401 75.9293 22.6681 68.0976 22.6681 68.0976C22.6681 68.0976 19.2628 57.3694 16.5374 54.6456C13.8134 51.9216 9.89876 51.9216 7.00409 51.5804C4.10942 51.2402 3.96674 50.0497 3.08674 48.1762C2.20674 46.3028 0.221434 42.2164 1.21477 41.7054C2.20677 41.195 7.51341 38.9814 8.19475 37.9601C8.87608 36.9388 9.38675 34.7257 11.6001 33.8736C13.8134 33.0216 19.2627 29.447 21.9867 29.447C24.7107 29.447 29.9894 34.2137 31.1801 35.2361C32.3734 36.2565 35.7787 39.8336 37.6507 42.2164C39.5241 44.6002 40.8867 51.071 47.8667 51.2402C54.8481 51.4112 114.953 52.7736 117.847 51.071C120.741 49.3669 124.488 51.2402 125.68 37.4497C126.872 23.6574 127.553 14.6325 126.02 12.4189C124.488 10.2054 126.02 9.69505 123.125 9.18411C120.232 8.67358 116.656 7.99238 115.633 5.94971C114.613 3.90691 115.293 0.876251 118.017 0.876251C120.741 0.876251 133.343 0.841309 135.385 17.5268C137.428 34.2137 131.98 44.6002 130.788 51.071C129.596 57.5402 127.811 57.4241 128.404 60.095Z" fill="#17282F"/>
<path d="M83.2828 90.399C83.2975 90.264 84.8628 90.6386 87.2948 90.0172C88.5095 89.7334 89.9108 89.2172 91.4921 88.6572C93.0695 88.112 94.8602 87.4974 96.8602 87.3906C98.8628 87.2932 100.749 87.8015 102.288 88.5427C103.833 89.2854 105.071 90.2135 106.016 91.076C106.964 91.94 107.644 92.723 108.075 93.2906C108.508 93.8563 108.708 94.1974 108.675 94.2239C108.577 94.3042 107.624 93.0454 105.696 91.4479C104.735 90.6547 103.508 89.799 102.017 89.1239C100.535 88.4479 98.7628 87.9932 96.8948 88.0828C95.0228 88.1828 93.2788 88.7506 91.6962 89.2624C90.1148 89.7864 88.6655 90.2656 87.3988 90.4974C86.1348 90.7359 85.0788 90.764 84.3642 90.6624C83.6508 90.5692 83.2748 90.4348 83.2828 90.399Z" fill="#33535F"/>
<path d="M2.07216 45.5479C2.87082 45.0921 3.87349 44.2921 4.07349 43.3957C4.27616 42.5 4.11614 41.3333 3.58814 40.5812C3.58814 40.5812 1.20681 41.2948 1.02681 41.9853C0.800146 42.8572 2.07216 45.5479 2.07216 45.5479Z" fill="#33535F"/>
<path d="M22.4402 30.3052C22.3468 30.2906 22.4068 29.5042 22.5841 28.2375C22.6988 27.5026 22.8148 26.7656 22.9322 26.0172C22.9695 25.8187 22.9802 25.5906 23.1228 25.3094C23.1908 25.1812 23.2988 25.0094 23.5362 24.9187C23.7628 24.8307 24.0455 24.9162 24.1908 25.0615C24.4722 25.3495 24.4988 25.6042 24.5922 25.8146C24.6708 26.0427 24.7495 26.2719 24.8295 26.5052C25.4428 28.3812 25.7028 30.1599 25.7668 31.4443C25.8148 32.0812 25.7668 32.6547 25.5908 33.0078C25.4148 33.364 25.2002 33.4615 25.1788 33.4307C25.1375 33.3932 25.2655 33.2386 25.3362 32.9172C25.4082 32.5958 25.3868 32.1187 25.2788 31.4948C25.0908 30.2479 24.7628 28.5386 24.1695 26.7187C24.0922 26.4932 24.0162 26.2692 23.9428 26.0479C23.8642 25.8255 23.7855 25.6 23.7308 25.5624C23.8068 25.3744 23.6322 25.7067 23.5562 26.1547C23.3922 26.888 23.2295 27.6078 23.0682 28.3266C22.7682 29.5615 22.5348 30.3198 22.4402 30.3052Z" fill="#33535F"/>
<path d="M31.0814 78.4069C31.2214 78.3721 31.36 79.9669 32.6267 82.1002C33.8547 84.2257 36.268 86.7841 39.296 88.9934C40.8493 90.0122 42.588 90.7257 43.916 91.8174C45.272 92.871 46.176 94.1601 46.7693 95.2856C47.3413 96.4268 47.6907 97.395 47.876 98.0746C48.0627 98.759 48.1413 99.1402 48.096 99.1533C47.968 99.1986 47.5493 97.6804 46.3413 95.5241C45.7107 94.4669 44.82 93.2882 43.524 92.3232C42.256 91.3189 40.564 90.647 38.912 89.5736C35.764 87.2762 33.38 84.6257 32.1973 82.3388C31.5973 81.208 31.3 80.2044 31.172 79.5054C31.0373 78.8054 31.044 78.4096 31.0814 78.4069Z" fill="#33535F"/>
<path d="M28.1534 74.9136C28.3614 74.9162 28.3841 76.911 29.1721 79.184C29.9308 81.4682 31.1268 83.0641 30.9628 83.1922C30.8441 83.323 29.3268 81.836 28.5134 79.4068C27.6801 76.9881 27.9788 74.884 28.1534 74.9136Z" fill="#33535F"/>
<path d="M16.6826 38.1682C16.6826 38.8198 16.1546 39.3506 15.5013 39.3506C14.848 39.3506 14.3186 38.8198 14.3186 38.1682C14.3186 37.5146 14.848 36.9839 15.5013 36.9839C16.1546 36.9839 16.6826 37.5146 16.6826 38.1682Z" fill="#33535F"/>
<path d="M18.2147 38.476C18.0681 38.6427 17.0547 37.5093 15.4094 37.5719C14.684 37.576 14.1267 38.1265 13.7347 38.5067C13.3414 38.9015 13.0907 39.1667 13.0054 39.112C12.9294 39.0656 13.0294 38.7067 13.3507 38.1973C13.5134 37.9453 13.7387 37.6563 14.0667 37.3853C14.3854 37.1161 14.8707 36.8812 15.3907 36.8776C16.3494 36.8667 17.2134 37.2359 17.6587 37.6624C18.1174 38.0744 18.2801 38.4161 18.2147 38.476Z" fill="#33535F"/>
</svg>
