<svg width="1056" height="1418" viewBox="0 0 1056 1418" fill="none" xmlns="http://www.w3.org/2000/svg">
<g filter="url(#filter0_f_14_2169)">
<path d="M723.091 58.4083L768.67 55.3254H780.076C786.242 55.3254 806.589 60.2582 825.394 66.4238C844.2 72.5895 867.321 78.1385 876.57 79.0634C885.818 79.9882 895.375 82.4546 897.841 84.3043C906.781 91.0865 913.564 112.05 913.564 132.397C913.564 161.376 903.699 180.181 871.637 212.859C857.456 227.657 843.583 244.613 841.117 250.47C832.485 271.433 835.259 296.405 854.681 373.476C879.036 468.12 883.66 495.249 883.968 545.499L884.277 587.426L872.87 610.547C866.396 623.803 853.448 642.301 843.275 653.707L825.086 673.437L854.99 680.22C968.13 705.499 1051.67 785.961 1026.4 845.461C1019.92 860.875 1010.36 867.657 994.95 867.657C978.611 867.657 972.138 861.8 947.475 825.422C933.911 805.075 927.128 798.293 913.564 790.894L896.608 781.337L817.379 780.412L737.841 779.487L737.533 792.744C737.533 800.143 735.683 845.461 733.525 893.861C729.517 981.723 729.518 981.722 736.3 1000.22C752.331 1044 766.203 1063.73 797.032 1086.23C803.198 1090.86 810.597 1097.95 813.371 1102.26C820.153 1112.44 818.659 1142.03 818.659 1142.03H724.632L704.593 1134.32L692.262 1125.08L676.848 1105.04L593.611 935.48L587.445 970.933L579.738 990.971L573.572 1006.39L562.782 1021.8L550.451 1035.67L533.495 1048L504.208 1069.58L473.38 1086.23H544.285L596.694 1095.79L616.732 1109.66L624.439 1118.91L621.356 1134.32L610.566 1142.03H236V587.426L246.79 520.836L277.618 465.345L350.066 416.019L419.43 394.439H499.584L525.788 388.274L538.119 380.566L547.368 372.859L565.865 355.904L581.279 331.241L588.987 311.202L595.152 277.291L598.235 241.838V6L621.358 36.8285V9.08276L676.849 81.5298L723.091 58.4083Z" fill="white"/>
</g>
<path d="M769.333 116.983L810.952 83.0713L849.487 106.193L827.907 100.027L818.659 101.568L769.333 116.983Z" fill="black"/>
<g filter="url(#filter1_f_14_2169)">
<path d="M900.354 89.237L904.979 92.3199V98.4856L895.73 96.9441L889.564 92.3199L900.354 89.237Z" fill="#FCAC92"/>
</g>
<g filter="url(#filter2_f_14_2169)">
<path d="M621.356 138.563V9.08282L644.478 38.3699L676.848 81.5298L647.561 100.027L639.854 109.276L621.356 138.563Z" fill="#A5A9B6"/>
<path d="M621.356 138.563V9.08282L644.478 38.3699L676.848 81.5298L647.561 100.027L639.854 109.276L621.356 138.563Z" fill="url(#paint0_linear_14_2169)"/>
</g>
<g filter="url(#filter3_f_14_2169)">
<path d="M596.694 135.48V6L619.815 35.2871L658.351 89.237L644.478 113.9L642.936 130.855L641.395 178.64L644.478 229.507L658.351 363.611L662.975 399.064L667.599 432.975L673.765 477.676L678.389 534.709L676.848 587.118L666.058 641.067L642.936 715.056L622.898 790.586L616.732 832.204V873.823L622.898 907.734L638.312 977.098L678.389 1106.58L595.152 938.563L590.528 961.684L582.821 983.264L572.031 1006.39L555.075 1027.97L539.661 1044.92L519.622 1058.79L482.628 1075.75L442.551 1086.54H519.622H576.655L595.152 1094.25L616.732 1100.41L629.064 1115.83L622.898 1131.24L616.732 1143.57H236V1018.72V587.118L248.331 517.753L276.077 468.428L348.524 414.478L416.347 394.439H493.418L521.164 391.356L536.578 382.108L565.865 355.904L581.279 331.241L588.987 311.202L590.528 298.871L595.152 278.832L598.235 246.462L596.694 135.48Z" fill="url(#paint1_linear_14_2169)"/>
<path d="M596.694 135.48V6L619.815 35.2871L658.351 89.237L644.478 113.9L642.936 130.855L641.395 178.64L644.478 229.507L658.351 363.611L662.975 399.064L667.599 432.975L673.765 477.676L678.389 534.709L676.848 587.118L666.058 641.067L642.936 715.056L622.898 790.586L616.732 832.204V873.823L622.898 907.734L638.312 977.098L678.389 1106.58L595.152 938.563L590.528 961.684L582.821 983.264L572.031 1006.39L555.075 1027.97L539.661 1044.92L519.622 1058.79L482.628 1075.75L442.551 1086.54H519.622H576.655L595.152 1094.25L616.732 1100.41L629.064 1115.83L622.898 1131.24L616.732 1143.57H236V1018.72V587.118L248.331 517.753L276.077 468.428L348.524 414.478L416.347 394.439H493.418L521.164 391.356L536.578 382.108L565.865 355.904L581.279 331.241L588.987 311.202L590.528 298.871L595.152 278.832L598.235 246.462L596.694 135.48Z" fill="#A5A9B6"/>
</g>
<path d="M877.233 147.275L880.316 123.148V246.462L877.233 211.613V147.275Z" fill="#A5A9B6"/>
<path d="M863.059 133.096L876.145 120.065L800.162 173.803L823.415 161.133L863.059 133.096Z" fill="#A5A9B6"/>
<path d="M863.696 146.442L880.375 121.507L809.052 256.322L826.484 216.78L863.696 146.442Z" fill="#A5A9B6"/>
<g filter="url(#filter4_f_14_2169)">
<path d="M827.908 674.979L915.769 696.559L958.929 721.222L989.757 745.884L1012.88 769.006L1031.38 795.21L1036 824.497L1032.92 844.536L1023.67 861.491L1009.8 870.74H992.84L977.426 864.574L968.177 852.243L958.929 838.37L943.515 816.79L928.1 802.917L908.062 789.044L861.819 782.879H720.008L726.174 772.089L738.505 756.674L749.295 742.802L770.875 722.763L795.538 702.724L823.283 678.062L827.908 674.979Z" fill="#A5A9B6"/>
<path d="M827.908 674.979L915.769 696.559L958.929 721.222L989.757 745.884L1012.88 769.006L1031.38 795.21L1036 824.497L1032.92 844.536L1023.67 861.491L1009.8 870.74H992.84L977.426 864.574L968.177 852.243L958.929 838.37L943.515 816.79L928.1 802.917L908.062 789.044L861.819 782.879H720.008L726.174 772.089L738.505 756.674L749.295 742.802L770.875 722.763L795.538 702.724L823.283 678.062L827.908 674.979Z" fill="url(#paint2_linear_14_2169)"/>
</g>
<g filter="url(#filter5_f_14_2169)">
<path d="M884.94 687.31L915.769 695.017L958.929 719.68L989.757 744.343L1012.88 767.464L1031.38 793.669L1036 822.956L1032.92 830.663L1029.83 835.287L1026.75 836.829L1012.88 839.911H1005.17L992.84 832.204L980.509 819.873L963.553 802.917L949.68 787.503L938.89 775.171L923.476 762.84L906.52 758.216H877.233L863.36 748.967L855.653 741.26L852.57 728.929V708.89L866.443 695.017L884.94 687.31Z" fill="white"/>
</g>
<g filter="url(#filter6_f_14_2169)">
<path d="M273.29 1105.85C273.29 1105.85 252.015 1161.07 186.546 1189.64C121.076 1218.21 44.0969 1238.61 68.6605 1310.25C93.2241 1381.89 248.76 1353.19 363.357 1308.2C477.953 1263.21 613.825 1230.53 721.878 1263.25C829.931 1295.97 808.723 1378.42 793.387 1388.68C745.535 1420.77 720.233 1371.59 671.106 1342.97C621.979 1314.36 530.335 1316.37 461.577 1338.78C392.819 1361.2 258.559 1402.13 178.358 1410.34C98.1569 1418.55 26.1104 1379.67 9.73468 1306.11C-6.64105 1232.54 34.2983 1205.94 65.3719 1183.44C96.4456 1160.94 173.425 1142.59 201.277 1124.2C229.129 1105.81 240.572 1083.6 240.572 1083.6C240.572 1083.6 273.29 1077.24 273.29 1105.85Z" fill="#A5A9B6"/>
</g>
<g filter="url(#filter7_f_14_2169)">
<path d="M632 1250L648 1250L664.5 1251.5L682.5 1253.5L701 1257.5L723.5 1263.5L739.5 1269L754.267 1275.51L772.624 1287.59L780 1294.5L787 1301L794.5 1311.5L800.5 1323.5L804 1334L805.699 1342L805.699 1348L805.699 1354L805.699 1358.09L805.699 1361L802.995 1365.27L790.041 1371.11L782.496 1372.68L768.853 1367.65L754.267 1358.09L734.212 1344.94L717.489 1332.68L704.413 1322.81L686.809 1313.88L669.267 1312.8L640.594 1318.77L625.128 1312.54L616.012 1306.57L610.481 1295.12L606.397 1275.51L617.152 1259.1L632 1250Z" fill="white"/>
</g>
<g filter="url(#filter8_f_14_2169)">
<path d="M672 1098L761.213 1101.54H796.279L814.843 1105.08L818.969 1115.7L820 1129.35L818.969 1138.45L815.875 1141.99L808.655 1143H718.411L698.815 1132.38L685.408 1119.74L672 1098Z" fill="url(#paint3_linear_14_2169)"/>
</g>
<defs>
<filter id="filter0_f_14_2169" x="232" y="2" width="802.933" height="1144.03" filterUnits="userSpaceOnUse" color-interpolation-filters="sRGB">
<feFlood flood-opacity="0" result="BackgroundImageFix"/>
<feBlend mode="normal" in="SourceGraphic" in2="BackgroundImageFix" result="shape"/>
<feGaussianBlur stdDeviation="2" result="effect1_foregroundBlur_14_2169"/>
</filter>
<filter id="filter1_f_14_2169" x="888.564" y="88.237" width="17.4143" height="11.2486" filterUnits="userSpaceOnUse" color-interpolation-filters="sRGB">
<feFlood flood-opacity="0" result="BackgroundImageFix"/>
<feBlend mode="normal" in="SourceGraphic" in2="BackgroundImageFix" result="shape"/>
<feGaussianBlur stdDeviation="0.5" result="effect1_foregroundBlur_14_2169"/>
</filter>
<filter id="filter2_f_14_2169" x="617.356" y="5.08282" width="63.4912" height="137.48" filterUnits="userSpaceOnUse" color-interpolation-filters="sRGB">
<feFlood flood-opacity="0" result="BackgroundImageFix"/>
<feBlend mode="normal" in="SourceGraphic" in2="BackgroundImageFix" result="shape"/>
<feGaussianBlur stdDeviation="2" result="effect1_foregroundBlur_14_2169"/>
</filter>
<filter id="filter3_f_14_2169" x="230" y="0" width="454.389" height="1149.57" filterUnits="userSpaceOnUse" color-interpolation-filters="sRGB">
<feFlood flood-opacity="0" result="BackgroundImageFix"/>
<feBlend mode="normal" in="SourceGraphic" in2="BackgroundImageFix" result="shape"/>
<feGaussianBlur stdDeviation="3" result="effect1_foregroundBlur_14_2169"/>
</filter>
<filter id="filter4_f_14_2169" x="716.008" y="670.979" width="323.992" height="203.761" filterUnits="userSpaceOnUse" color-interpolation-filters="sRGB">
<feFlood flood-opacity="0" result="BackgroundImageFix"/>
<feBlend mode="normal" in="SourceGraphic" in2="BackgroundImageFix" result="shape"/>
<feGaussianBlur stdDeviation="2" result="effect1_foregroundBlur_14_2169"/>
</filter>
<filter id="filter5_f_14_2169" x="832.57" y="667.31" width="223.43" height="192.601" filterUnits="userSpaceOnUse" color-interpolation-filters="sRGB">
<feFlood flood-opacity="0" result="BackgroundImageFix"/>
<feBlend mode="normal" in="SourceGraphic" in2="BackgroundImageFix" result="shape"/>
<feGaussianBlur stdDeviation="10" result="effect1_foregroundBlur_14_2169"/>
</filter>
<filter id="filter6_f_14_2169" x="0" y="1077" width="812" height="340.421" filterUnits="userSpaceOnUse" color-interpolation-filters="sRGB">
<feFlood flood-opacity="0" result="BackgroundImageFix"/>
<feBlend mode="normal" in="SourceGraphic" in2="BackgroundImageFix" result="shape"/>
<feGaussianBlur stdDeviation="3" result="effect1_foregroundBlur_14_2169"/>
</filter>
<filter id="filter7_f_14_2169" x="586.397" y="1230" width="239.302" height="162.681" filterUnits="userSpaceOnUse" color-interpolation-filters="sRGB">
<feFlood flood-opacity="0" result="BackgroundImageFix"/>
<feBlend mode="normal" in="SourceGraphic" in2="BackgroundImageFix" result="shape"/>
<feGaussianBlur stdDeviation="10" result="effect1_foregroundBlur_14_2169"/>
</filter>
<filter id="filter8_f_14_2169" x="668" y="1094" width="156" height="53" filterUnits="userSpaceOnUse" color-interpolation-filters="sRGB">
<feFlood flood-opacity="0" result="BackgroundImageFix"/>
<feBlend mode="normal" in="SourceGraphic" in2="BackgroundImageFix" result="shape"/>
<feGaussianBlur stdDeviation="2" result="effect1_foregroundBlur_14_2169"/>
</filter>
<linearGradient id="paint0_linear_14_2169" x1="649.102" y1="9.08282" x2="649.102" y2="138.563" gradientUnits="userSpaceOnUse">
<stop stop-color="white"/>
<stop offset="1" stop-color="white" stop-opacity="0"/>
</linearGradient>
<linearGradient id="paint1_linear_14_2169" x1="676.848" y1="503.881" x2="236" y2="503.881" gradientUnits="userSpaceOnUse">
<stop stop-color="white"/>
<stop offset="0.078025" stop-color="#F8F9FA"/>
<stop offset="0.145833" stop-color="#E0E1E6" stop-opacity="0.895923"/>
<stop offset="0.28125" stop-color="#BABDC7" stop-opacity="0.765702"/>
<stop offset="0.619792" stop-color="#DBDCE1" stop-opacity="0.405045"/>
<stop offset="0.744792" stop-color="#E7E8EC" stop-opacity="0.266331"/>
<stop offset="1" stop-color="white" stop-opacity="0"/>
<stop offset="1" stop-color="white" stop-opacity="0"/>
<stop offset="1" stop-color="white" stop-opacity="0"/>
<stop offset="1" stop-color="#A5A9B6"/>
</linearGradient>
<linearGradient id="paint2_linear_14_2169" x1="878.004" y1="674.979" x2="878.004" y2="870.74" gradientUnits="userSpaceOnUse">
<stop stop-color="white"/>
<stop offset="1" stop-color="white" stop-opacity="0"/>
</linearGradient>
<linearGradient id="paint3_linear_14_2169" x1="761.213" y1="1108.62" x2="761.213" y2="1143" gradientUnits="userSpaceOnUse">
<stop stop-color="#A5A9B6" stop-opacity="0"/>
<stop offset="1" stop-color="#A5A9B6"/>
</linearGradient>
</defs>
</svg>
