<svg data-v-423bf9ae="" xmlns="http://www.w3.org/2000/svg" viewBox="0 0 504 91" class="iconLeft"><!----><!----><!----><g data-v-423bf9ae="" id="6c5f7b0a-edc6-43a1-8729-7978577fd6d8" fill="#253D52" transform="matrix(5.988024248455585,0,0,5.988024248455585,107.53383255652403,-9.49101865937186)"><path d="M1.36 14L1.36 14Q1.26 14 1.20 13.94L1.20 13.94L1.20 13.94Q1.15 13.89 1.15 13.79L1.15 13.79L1.15 4.41L1.15 4.41Q1.15 4.31 1.20 4.26L1.20 4.26L1.20 4.26Q1.26 4.20 1.36 4.20L1.36 4.20L2.25 4.20L2.25 4.20Q2.42 4.20 2.51 4.34L2.51 4.34L6.79 11.27L6.79 11.27Q6.82 11.31 6.85 11.30L6.85 11.30L6.85 11.30Q6.87 11.30 6.87 11.24L6.87 11.24L6.87 4.41L6.87 4.41Q6.87 4.31 6.93 4.26L6.93 4.26L6.93 4.26Q6.99 4.20 7.08 4.20L7.08 4.20L8.01 4.20L8.01 4.20Q8.11 4.20 8.16 4.26L8.16 4.26L8.16 4.26Q8.22 4.31 8.22 4.41L8.22 4.41L8.22 13.79L8.22 13.79Q8.22 13.89 8.16 13.94L8.16 13.94L8.16 13.94Q8.11 14 8.01 14L8.01 14L7.10 14L7.10 14Q6.93 14 6.85 13.86L6.85 13.86L2.56 6.89L2.56 6.89Q2.53 6.85 2.51 6.85L2.51 6.85L2.51 6.85Q2.48 6.86 2.48 6.92L2.48 6.92L2.49 13.79L2.49 13.79Q2.49 13.89 2.44 13.94L2.44 13.94L2.44 13.94Q2.38 14 2.28 14L2.28 14L1.36 14ZM16.66 4.20L16.66 4.20Q16.76 4.20 16.81 4.26L16.81 4.26L16.81 4.26Q16.87 4.31 16.87 4.41L16.87 4.41L16.87 5.17L16.87 5.17Q16.87 5.26 16.81 5.32L16.81 5.32L16.81 5.32Q16.76 5.38 16.66 5.38L16.66 5.38L14.06 5.38L14.06 5.38Q13.99 5.38 13.99 5.45L13.99 5.45L13.99 13.79L13.99 13.79Q13.99 13.89 13.93 13.94L13.93 13.94L13.93 13.94Q13.87 14 13.78 14L13.78 14L12.85 14L12.85 14Q12.75 14 12.70 13.94L12.70 13.94L12.70 13.94Q12.64 13.89 12.64 13.79L12.64 13.79L12.64 5.45L12.64 5.45Q12.64 5.38 12.57 5.38L12.57 5.38L10.09 5.38L10.09 5.38Q10.00 5.38 9.94 5.32L9.94 5.32L9.94 5.32Q9.88 5.26 9.88 5.17L9.88 5.17L9.88 4.41L9.88 4.41Q9.88 4.31 9.94 4.26L9.94 4.26L9.94 4.26Q10.00 4.20 10.09 4.20L10.09 4.20L16.66 4.20ZM18.75 14L18.75 14Q18.65 14 18.59 13.94L18.59 13.94L18.59 13.94Q18.54 13.89 18.54 13.79L18.54 13.79L18.54 4.41L18.54 4.41Q18.54 4.31 18.59 4.26L18.59 4.26L18.59 4.26Q18.65 4.20 18.75 4.20L18.75 4.20L19.64 4.20L19.64 4.20Q19.81 4.20 19.89 4.34L19.89 4.34L24.18 11.27L24.18 11.27Q24.21 11.31 24.23 11.30L24.23 11.30L24.23 11.30Q24.26 11.30 24.26 11.24L24.26 11.24L24.26 4.41L24.26 4.41Q24.26 4.31 24.32 4.26L24.32 4.26L24.32 4.26Q24.37 4.20 24.47 4.20L24.47 4.20L25.40 4.20L25.40 4.20Q25.49 4.20 25.55 4.26L25.55 4.26L25.55 4.26Q25.61 4.31 25.61 4.41L25.61 4.41L25.61 13.79L25.61 13.79Q25.61 13.89 25.55 13.94L25.55 13.94L25.55 13.94Q25.49 14 25.40 14L25.40 14L24.49 14L24.49 14Q24.32 14 24.23 13.86L24.23 13.86L19.95 6.89L19.95 6.89Q19.92 6.85 19.89 6.85L19.89 6.85L19.89 6.85Q19.87 6.86 19.87 6.92L19.87 6.92L19.88 13.79L19.88 13.79Q19.88 13.89 19.82 13.94L19.82 13.94L19.82 13.94Q19.77 14 19.67 14L19.67 14L18.75 14ZM31.23 14.11L31.23 14.11Q30.21 14.11 29.43 13.71L29.43 13.71L29.43 13.71Q28.66 13.31 28.22 12.58L28.22 12.58L28.22 12.58Q27.79 11.84 27.79 10.89L27.79 10.89L27.79 4.41L27.79 4.41Q27.79 4.31 27.85 4.26L27.85 4.26L27.85 4.26Q27.90 4.20 28 4.20L28 4.20L28.92 4.20L28.92 4.20Q29.02 4.20 29.08 4.26L29.08 4.26L29.08 4.26Q29.13 4.31 29.13 4.41L29.13 4.41L29.13 10.92L29.13 10.92Q29.13 11.83 29.71 12.39L29.71 12.39L29.71 12.39Q30.30 12.95 31.23 12.95L31.23 12.95L31.23 12.95Q32.17 12.95 32.75 12.39L32.75 12.39L32.75 12.39Q33.32 11.83 33.32 10.92L33.32 10.92L33.32 4.41L33.32 4.41Q33.32 4.31 33.38 4.26L33.38 4.26L33.38 4.26Q33.43 4.20 33.53 4.20L33.53 4.20L34.45 4.20L34.45 4.20Q34.55 4.20 34.61 4.26L34.61 4.26L34.61 4.26Q34.66 4.31 34.66 4.41L34.66 4.41L34.66 10.89L34.66 10.89Q34.66 11.84 34.24 12.58L34.24 12.58L34.24 12.58Q33.81 13.31 33.03 13.71L33.03 13.71L33.03 13.71Q32.26 14.11 31.23 14.11L31.23 14.11ZM42.69 14.11L42.69 14.11Q41.64 14.11 40.85 13.78L40.85 13.78L40.85 13.78Q40.07 13.44 39.64 12.82L39.64 12.82L39.64 12.82Q39.21 12.21 39.21 11.38L39.21 11.38L39.21 11.05L39.21 11.05Q39.21 10.95 39.27 10.89L39.27 10.89L39.27 10.89Q39.33 10.84 39.42 10.84L39.42 10.84L40.32 10.84L40.32 10.84Q40.42 10.84 40.47 10.89L40.47 10.89L40.47 10.89Q40.53 10.95 40.53 11.05L40.53 11.05L40.53 11.31L40.53 11.31Q40.53 12.03 41.15 12.49L41.15 12.49L41.15 12.49Q41.76 12.95 42.78 12.95L42.78 12.95L42.78 12.95Q43.75 12.95 44.24 12.54L44.24 12.54L44.24 12.54Q44.73 12.14 44.73 11.48L44.73 11.48L44.73 11.48Q44.73 11.05 44.48 10.74L44.48 10.74L44.48 10.74Q44.23 10.43 43.74 10.17L43.74 10.17L43.74 10.17Q43.26 9.91 42.34 9.55L42.34 9.55L42.34 9.55Q41.31 9.16 40.72 8.83L40.72 8.83L40.72 8.83Q40.12 8.51 39.73 7.99L39.73 7.99L39.73 7.99Q39.34 7.46 39.34 6.66L39.34 6.66L39.34 6.66Q39.34 5.46 40.20 4.77L40.20 4.77L40.20 4.77Q41.06 4.09 42.53 4.09L42.53 4.09L42.53 4.09Q43.57 4.09 44.35 4.44L44.35 4.44L44.35 4.44Q45.14 4.79 45.56 5.42L45.56 5.42L45.56 5.42Q45.99 6.05 45.99 6.87L45.99 6.87L45.99 7.08L45.99 7.08Q45.99 7.18 45.93 7.24L45.93 7.24L45.93 7.24Q45.88 7.29 45.78 7.29L45.78 7.29L44.87 7.29L44.87 7.29Q44.77 7.29 44.72 7.25L44.72 7.25L44.72 7.25Q44.66 7.20 44.66 7.11L44.66 7.11L44.66 6.94L44.66 6.94Q44.66 6.22 44.08 5.73L44.08 5.73L44.08 5.73Q43.50 5.25 42.48 5.25L42.48 5.25L42.48 5.25Q41.61 5.25 41.13 5.61L41.13 5.61L41.13 5.61Q40.66 5.96 40.66 6.64L40.66 6.64L40.66 6.64Q40.66 7.10 40.89 7.39L40.89 7.39L40.89 7.39Q41.13 7.69 41.60 7.92L41.60 7.92L41.60 7.92Q42.07 8.15 43.04 8.51L43.04 8.51L43.04 8.51Q44.03 8.90 44.65 9.23L44.65 9.23L44.65 9.23Q45.26 9.56 45.67 10.10L45.67 10.10L45.67 10.10Q46.07 10.64 46.07 11.44L46.07 11.44L46.07 11.44Q46.07 12.24 45.67 12.84L45.67 12.84L45.67 12.84Q45.26 13.44 44.49 13.78L44.49 13.78L44.49 13.78Q43.72 14.11 42.69 14.11L42.69 14.11ZM48.10 14L48.10 14Q48.01 14 47.95 13.94L47.95 13.94L47.95 13.94Q47.89 13.89 47.89 13.79L47.89 13.79L47.89 4.41L47.89 4.41Q47.89 4.31 47.95 4.26L47.95 4.26L47.95 4.26Q48.01 4.20 48.10 4.20L48.10 4.20L49.03 4.20L49.03 4.20Q49.13 4.20 49.18 4.26L49.18 4.26L49.18 4.26Q49.24 4.31 49.24 4.41L49.24 4.41L49.24 13.79L49.24 13.79Q49.24 13.89 49.18 13.94L49.18 13.94L49.18 13.94Q49.13 14 49.03 14L49.03 14L48.10 14ZM57.69 4.20L57.69 4.20Q57.79 4.20 57.85 4.26L57.85 4.26L57.85 4.26Q57.90 4.31 57.90 4.41L57.90 4.41L57.90 5.17L57.90 5.17Q57.90 5.26 57.85 5.32L57.85 5.32L57.85 5.32Q57.79 5.38 57.69 5.38L57.69 5.38L55.09 5.38L55.09 5.38Q55.02 5.38 55.02 5.45L55.02 5.45L55.02 13.79L55.02 13.79Q55.02 13.89 54.96 13.94L54.96 13.94L54.96 13.94Q54.91 14 54.81 14L54.81 14L53.89 14L53.89 14Q53.79 14 53.73 13.94L53.73 13.94L53.73 13.94Q53.68 13.89 53.68 13.79L53.68 13.79L53.68 5.45L53.68 5.45Q53.68 5.38 53.61 5.38L53.61 5.38L51.13 5.38L51.13 5.38Q51.03 5.38 50.97 5.32L50.97 5.32L50.97 5.32Q50.92 5.26 50.92 5.17L50.92 5.17L50.92 4.41L50.92 4.41Q50.92 4.31 50.97 4.26L50.97 4.26L50.97 4.26Q51.03 4.20 51.13 4.20L51.13 4.20L57.69 4.20ZM66.08 5.15L66.08 5.15Q66.08 5.25 66.02 5.31L66.02 5.31L66.02 5.31Q65.97 5.36 65.87 5.36L65.87 5.36L60.98 5.36L60.98 5.36Q60.91 5.36 60.91 5.43L60.91 5.43L60.91 8.41L60.91 8.41Q60.91 8.48 60.98 8.48L60.98 8.48L64.32 8.48L64.32 8.48Q64.41 8.48 64.47 8.54L64.47 8.54L64.47 8.54Q64.53 8.60 64.53 8.69L64.53 8.69L64.53 9.44L64.53 9.44Q64.53 9.53 64.47 9.59L64.47 9.59L64.47 9.59Q64.41 9.65 64.32 9.65L64.32 9.65L60.98 9.65L60.98 9.65Q60.91 9.65 60.91 9.72L60.91 9.72L60.91 12.77L60.91 12.77Q60.91 12.84 60.98 12.84L60.98 12.84L65.87 12.84L65.87 12.84Q65.97 12.84 66.02 12.89L66.02 12.89L66.02 12.89Q66.08 12.95 66.08 13.05L66.08 13.05L66.08 13.79L66.08 13.79Q66.08 13.89 66.02 13.94L66.02 13.94L66.02 13.94Q65.97 14 65.87 14L65.87 14L59.78 14L59.78 14Q59.68 14 59.63 13.94L59.63 13.94L59.63 13.94Q59.57 13.89 59.57 13.79L59.57 13.79L59.57 4.41L59.57 4.41Q59.57 4.31 59.63 4.26L59.63 4.26L59.63 4.26Q59.68 4.20 59.78 4.20L59.78 4.20L65.87 4.20L65.87 4.20Q65.97 4.20 66.02 4.26L66.02 4.26L66.02 4.26Q66.08 4.31 66.08 4.41L66.08 4.41L66.08 5.15Z"></path></g><defs data-v-423bf9ae=""><linearGradient data-v-423bf9ae="" gradientTransform="rotate(25)" id="abbf3b5e-c898-4c74-a265-476f6a15c3b8" x1="0%" y1="0%" x2="100%" y2="0%"><stop data-v-423bf9ae="" offset="0%" style="stop-color: rgb(0, 125, 232); stop-opacity: 1;"></stop><stop data-v-423bf9ae="" offset="100%" style="stop-color: rgb(161, 195, 219); stop-opacity: 1;"></stop></linearGradient></defs><g data-v-423bf9ae="" id="f9ae80e9-182a-4e8e-a077-4ea90b82de10" transform="matrix(1.0491467358242885,0,0,1.0491467358242885,0.7899697435404818,0.9999999999999929)" stroke="none" fill="url(#abbf3b5e-c898-4c74-a265-476f6a15c3b8)"><switch><g><path d="M28.225 29.335L0 57.559l28.225 28.225 28.224-28.225-28.224-28.224zm0 47.496L8.944 57.559l19.28-19.275 19.272 19.275-19.271 19.272zM50.858 0l-7.834 39.139 39.139 7.833L89.997 7.83 50.858 0zm26.346 39.522l-26.733-5.347 5.354-26.729 26.726 5.351-5.347 26.725z"></path></g></switch></g><!----></svg>